<?xml version="1.0" encoding="UTF-8"?>
<svg id="b" data-name="Layer 2" xmlns="http://www.w3.org/2000/svg" xmlns:xlink="http://www.w3.org/1999/xlink" viewBox="0 0 327.64 750.81">
  <defs>
    <style>
      .bv {
        fill: url(#am);
      }

      .bw {
        fill: url(#az);
      }

      .bx {
        fill: url(#al);
      }

      .by {
        fill: url(#ak);
      }

      .bz {
        fill: url(#br);
      }

      .ca {
        fill: url(#bq);
      }

      .cb {
        fill: url(#bs);
      }

      .cc {
        fill: url(#bt);
      }

      .cd {
        fill: url(#bp);
      }

      .ce {
        fill: url(#bu);
      }

      .cf {
        fill: url(#bc);
      }

      .cg {
        fill: url(#ba);
      }

      .ch {
        fill: url(#bb);
      }

      .ci {
        fill: url(#u);
      }

      .cj {
        fill: url(#w);
      }

      .ck {
        fill: url(#x);
      }

      .cl {
        fill: url(#v);
      }

      .cm, .cn, .co, .cp, .cq, .cr, .cs, .ct, .cu, .cv, .cw, .cx, .cy, .cz, .da, .db, .dc, .dd, .de, .df, .dg, .dh, .di, .dj, .dk, .dl, .dm, .dn, .do, .dp, .dq, .dr, .ds, .dt, .du, .dv, .dw, .dx, .dy, .dz, .ea, .eb, .ec, .ed, .ee, .ef, .eg, .eh, .ei, .ej {
        fill: none;
      }

      .cn {
        stroke: url(#t);
      }

      .cn, .co, .cp, .cq, .cr, .cs, .ct, .cu, .cv, .cw, .cx, .cy, .cz, .da, .db, .dc, .dd, .de, .df, .dg, .dh, .di, .dj, .dk, .dl, .dm, .dn, .do, .dp, .dq, .dr, .ds, .dt, .du, .dv, .dw, .dx, .dy, .dz, .ea, .eb, .ec, .ed, .ee, .ef, .eg, .eh, .ei, .ej {
        stroke-miterlimit: 10;
        stroke-width: 1.82px;
      }

      .co {
        stroke: url(#z);
      }

      .cp {
        stroke: url(#f);
      }

      .cq {
        stroke: url(#e);
      }

      .cr {
        stroke: url(#l);
      }

      .cs {
        stroke: url(#k);
      }

      .ct {
        stroke: url(#n);
      }

      .cu {
        stroke: url(#h);
      }

      .cv {
        stroke: url(#r);
      }

      .cw {
        stroke: url(#s);
      }

      .cx {
        stroke: url(#m);
      }

      .cy {
        stroke: url(#q);
      }

      .cz {
        stroke: url(#g);
      }

      .da {
        stroke: url(#p);
      }

      .db {
        stroke: url(#i);
      }

      .dc {
        stroke: url(#j);
      }

      .dd {
        stroke: url(#o);
      }

      .ek {
        fill: #fcb249;
      }

      .el {
        fill: #26190e;
      }

      .de {
        stroke: url(#ah);
      }

      .df {
        stroke: url(#ag);
      }

      .dg {
        stroke: url(#ai);
      }

      .dh {
        stroke: url(#af);
      }

      .di {
        stroke: url(#aj);
      }

      .dj {
        stroke: url(#ad);
      }

      .dk {
        stroke: url(#ae);
      }

      .dl {
        stroke: url(#ao);
      }

      .dm {
        stroke: url(#ap);
      }

      .dn {
        stroke: url(#ac);
      }

      .do {
        stroke: url(#aq);
      }

      .dp {
        stroke: url(#ar);
      }

      .dq {
        stroke: url(#aa);
      }

      .dr {
        stroke: url(#ab);
      }

      .ds {
        stroke: url(#as);
      }

      .dt {
        stroke: url(#at);
      }

      .du {
        stroke: url(#av);
      }

      .dv {
        stroke: url(#aw);
      }

      .dw {
        stroke: url(#ax);
      }

      .dx {
        stroke: url(#au);
      }

      .dy {
        stroke: url(#ay);
      }

      .dz {
        stroke: url(#bi);
      }

      .ea {
        stroke: url(#bk);
      }

      .eb {
        stroke: url(#bj);
      }

      .ec {
        stroke: url(#bo);
      }

      .ed {
        stroke: url(#bh);
      }

      .ee {
        stroke: url(#bg);
      }

      .ef {
        stroke: url(#bm);
      }

      .eg {
        stroke: url(#bf);
      }

      .eh {
        stroke: url(#be);
      }

      .ei {
        stroke: url(#bn);
      }

      .ej {
        stroke: url(#bl);
      }

      .em {
        clip-path: url(#y);
      }

      .en {
        clip-path: url(#d);
      }

      .eo {
        clip-path: url(#an);
      }

      .ep {
        clip-path: url(#bd);
      }
    </style>
    <linearGradient id="e" data-name="Degradado sin nombre 3" x1="48.6" y1="397.77" x2="161.9" y2="397.77" gradientUnits="userSpaceOnUse">
      <stop offset=".02" stop-color="#dba762"/>
      <stop offset=".06" stop-color="#dfb070"/>
      <stop offset=".13" stop-color="#ebc898"/>
      <stop offset=".23" stop-color="#ffefd5"/>
      <stop offset=".28" stop-color="#fdecd0"/>
      <stop offset=".33" stop-color="#f9e4c4"/>
      <stop offset=".38" stop-color="#f3d7af"/>
      <stop offset=".43" stop-color="#eac592"/>
      <stop offset=".48" stop-color="#deae6d"/>
      <stop offset=".5" stop-color="#dba762"/>
      <stop offset=".8" stop-color="#ffe5ba"/>
      <stop offset="1" stop-color="#8a5522"/>
    </linearGradient>
    <clipPath id="d">
      <polygon class="cq" points="49.86 484.25 105.25 313.33 160.64 484.25 49.86 484.25"/>
    </clipPath>
    <linearGradient id="f" data-name="Degradado sin nombre 3" x1="68.89" y1="336.5" x2="166.46" y2="336.5" xlink:href="#e"/>
    <linearGradient id="g" data-name="Degradado sin nombre 3" x1="69.23" y1="352.41" x2="129.33" y2="352.41" xlink:href="#e"/>
    <linearGradient id="h" data-name="Degradado sin nombre 3" x1="80.45" y1="376.77" x2="179.76" y2="376.77" xlink:href="#e"/>
    <linearGradient id="i" data-name="Degradado sin nombre 3" x1="23.69" y1="390.19" x2="144.05" y2="390.19" xlink:href="#e"/>
    <linearGradient id="j" data-name="Degradado sin nombre 3" x1="50.56" y1="417.54" x2="195.74" y2="417.54" xlink:href="#e"/>
    <linearGradient id="k" data-name="Degradado sin nombre 3" x1="41.38" y1="423.01" x2="138.29" y2="423.01" xlink:href="#e"/>
    <linearGradient id="l" data-name="Degradado sin nombre 3" x1="98.24" y1="438.67" x2="180.37" y2="438.67" xlink:href="#e"/>
    <linearGradient id="m" data-name="Degradado sin nombre 3" x1="33.46" y1="436.93" x2="135.28" y2="436.93" xlink:href="#e"/>
    <linearGradient id="n" data-name="Degradado sin nombre 3" x1="77.47" y1="421.51" x2="203.12" y2="421.51" xlink:href="#e"/>
    <linearGradient id="o" data-name="Degradado sin nombre 3" x1="191.09" y1="439.34" x2="69.13" y2="378.83" xlink:href="#e"/>
    <linearGradient id="p" data-name="Degradado sin nombre 3" x1="148.04" y1="423.2" x2="109.19" y2="403.92" xlink:href="#e"/>
    <linearGradient id="q" data-name="Degradado sin nombre 3" x1="173.06" y1="434.45" x2="126.93" y2="411.56" xlink:href="#e"/>
    <linearGradient id="r" data-name="Degradado sin nombre 3" x1="155.04" y1="470.82" x2="54.46" y2="420.92" xlink:href="#e"/>
    <linearGradient id="s" data-name="Degradado sin nombre 3" x1="157.29" y1="463.24" x2="51.22" y2="410.61" xlink:href="#e"/>
    <linearGradient id="t" data-name="Degradado sin nombre 3" x1="99.67" y1="423.16" x2="81" y2="413.9" xlink:href="#e"/>
    <linearGradient id="u" data-name="Degradado sin nombre 3" x1="105.25" y1="296.48" x2="105.25" y2="514.76" xlink:href="#e"/>
    <linearGradient id="v" data-name="Degradado sin nombre 3" x1="106.06" y1="90.03" x2="106.06" y2="340.63" xlink:href="#e"/>
    <linearGradient id="w" data-name="Degradado sin nombre 3" x1="106.56" y1="89.91" x2="106.56" y2="340.51" xlink:href="#e"/>
    <linearGradient id="x" data-name="Degradado sin nombre 3" x1="107.12" y1="14.29" x2="107.12" y2="381.38" xlink:href="#e"/>
    <clipPath id="y">
      <polygon class="cm" points="54.92 147.31 66.56 183.13 104.23 183.13 73.76 205.27 85.4 241.1 54.92 218.96 24.45 241.1 36.09 205.27 5.62 183.13 43.28 183.13 54.92 147.31"/>
    </clipPath>
    <linearGradient id="z" data-name="Degradado sin nombre 3" x1="32.99" y1="201.3" x2="79.47" y2="201.3" xlink:href="#e"/>
    <linearGradient id="aa" data-name="Degradado sin nombre 3" x1="1.73" y1="199.62" x2="76.54" y2="199.62" xlink:href="#e"/>
    <linearGradient id="ab" data-name="Degradado sin nombre 3" x1="-1.01" y1="198.5" x2="131.97" y2="198.5" xlink:href="#e"/>
    <linearGradient id="ac" data-name="Degradado sin nombre 3" x1="45.33" y1="185.33" x2="100.21" y2="185.33" xlink:href="#e"/>
    <linearGradient id="ad" data-name="Degradado sin nombre 3" x1="21.9" y1="215.04" x2="90.56" y2="215.04" xlink:href="#e"/>
    <linearGradient id="ae" data-name="Degradado sin nombre 3" x1="1.43" y1="217.24" x2="87" y2="217.24" xlink:href="#e"/>
    <linearGradient id="af" data-name="Degradado sin nombre 3" x1="15.11" y1="219.53" x2="71.57" y2="219.53" xlink:href="#e"/>
    <linearGradient id="ag" data-name="Degradado sin nombre 3" x1="84.47" y1="180" x2="89.1" y2="180" xlink:href="#e"/>
    <linearGradient id="ah" data-name="Degradado sin nombre 3" x1="-4.97" y1="192.89" x2="105.1" y2="192.89" xlink:href="#e"/>
    <linearGradient id="ai" data-name="Degradado sin nombre 3" x1="41.44" y1="195.98" x2="97.37" y2="195.98" xlink:href="#e"/>
    <linearGradient id="aj" data-name="Degradado sin nombre 3" x1="52.7" y1="214.2" x2="108.54" y2="214.2" xlink:href="#e"/>
    <linearGradient id="ak" data-name="Degradado sin nombre 3" x1="54.92" y1="145.95" x2="54.92" y2="256.25" xlink:href="#e"/>
    <linearGradient id="al" data-name="Degradado sin nombre 3" x1="55.27" y1="-32.5" x2="55.27" y2="218.1" xlink:href="#e"/>
    <linearGradient id="am" data-name="Degradado sin nombre 3" x1="55.68" y1="-284.6" x2="55.68" y2="354.41" xlink:href="#e"/>
    <clipPath id="an">
      <polygon class="cm" points="237.82 300.52 249.46 336.35 287.13 336.35 256.66 358.49 268.3 394.31 237.82 372.17 207.35 394.31 218.99 358.49 188.52 336.35 226.18 336.35 237.82 300.52"/>
    </clipPath>
    <linearGradient id="ao" data-name="Degradado sin nombre 3" x1="215.89" y1="354.58" x2="262.37" y2="354.58" xlink:href="#e"/>
    <linearGradient id="ap" data-name="Degradado sin nombre 3" x1="184.63" y1="352.9" x2="259.44" y2="352.9" xlink:href="#e"/>
    <linearGradient id="aq" data-name="Degradado sin nombre 3" x1="181.89" y1="351.78" x2="314.87" y2="351.78" xlink:href="#e"/>
    <linearGradient id="ar" data-name="Degradado sin nombre 3" x1="228.23" y1="338.6" x2="283.11" y2="338.6" xlink:href="#e"/>
    <linearGradient id="as" data-name="Degradado sin nombre 3" x1="204.8" y1="368.32" x2="273.47" y2="368.32" xlink:href="#e"/>
    <linearGradient id="at" data-name="Degradado sin nombre 3" x1="183.96" y1="370.45" x2="270.09" y2="370.45" xlink:href="#e"/>
    <linearGradient id="au" data-name="Degradado sin nombre 3" x1="198.01" y1="372.8" x2="254.47" y2="372.8" xlink:href="#e"/>
    <linearGradient id="av" data-name="Degradado sin nombre 3" x1="267.37" y1="333.28" x2="272" y2="333.28" xlink:href="#e"/>
    <linearGradient id="aw" data-name="Degradado sin nombre 3" x1="177.93" y1="346.17" x2="288" y2="346.17" xlink:href="#e"/>
    <linearGradient id="ax" data-name="Degradado sin nombre 3" x1="224.34" y1="349.25" x2="280.27" y2="349.25" xlink:href="#e"/>
    <linearGradient id="ay" data-name="Degradado sin nombre 3" x1="235.6" y1="367.47" x2="291.44" y2="367.47" xlink:href="#e"/>
    <linearGradient id="az" data-name="Degradado sin nombre 3" x1="237.82" y1="299.17" x2="237.82" y2="409.46" xlink:href="#e"/>
    <linearGradient id="ba" data-name="Degradado sin nombre 3" x1="238.17" y1="120.78" x2="238.17" y2="371.38" xlink:href="#e"/>
    <linearGradient id="bb" data-name="Degradado sin nombre 3" x1="238.77" y1="136.75" x2="238.77" y2="362.5" xlink:href="#e"/>
    <linearGradient id="bc" data-name="Degradado sin nombre 3" x1="238.77" y1="-397.03" x2="238.77" y2="492.82" xlink:href="#e"/>
    <clipPath id="bd">
      <circle class="cm" cx="277.91" cy="209.41" r="48.09"/>
    </clipPath>
    <linearGradient id="be" data-name="Degradado sin nombre 3" x1="-394.46" y1="116.02" x2="271.98" y2="116.02" xlink:href="#e"/>
    <linearGradient id="bf" data-name="Degradado sin nombre 3" x1="-395.44" y1="95.34" x2="216.19" y2="95.34" xlink:href="#e"/>
    <linearGradient id="bg" data-name="Degradado sin nombre 3" x1="250.7" y1="208.16" x2="261.44" y2="208.16" xlink:href="#e"/>
    <linearGradient id="bh" data-name="Degradado sin nombre 3" x1="-366.27" y1="112.78" x2="220.28" y2="112.78" xlink:href="#e"/>
    <linearGradient id="bi" data-name="Degradado sin nombre 3" x1="267.73" y1="211.81" x2="282.52" y2="211.81" xlink:href="#e"/>
    <linearGradient id="bj" data-name="Degradado sin nombre 3" x1="-367.06" y1="132.64" x2="226.74" y2="132.64" xlink:href="#e"/>
    <linearGradient id="bk" data-name="Degradado sin nombre 3" x1="218.75" y1="219.92" x2="325.02" y2="219.92" xlink:href="#e"/>
    <linearGradient id="bl" data-name="Degradado sin nombre 3" x1="210.64" y1="210.59" x2="323.4" y2="210.59" xlink:href="#e"/>
    <linearGradient id="bm" data-name="Degradado sin nombre 3" x1="300.17" y1="210.19" x2="308.48" y2="210.19" xlink:href="#e"/>
    <linearGradient id="bn" data-name="Degradado sin nombre 3" x1="218.17" y1="228.03" x2="326.41" y2="228.03" xlink:href="#e"/>
    <linearGradient id="bo" data-name="Degradado sin nombre 3" x1="-358.98" y1="150.08" x2="234.07" y2="150.08" xlink:href="#e"/>
    <linearGradient id="bp" data-name="Degradado sin nombre 3" x1="277.76" y1="140.44" x2="277.76" y2="265.13" xlink:href="#e"/>
    <linearGradient id="bq" data-name="Degradado sin nombre 3" x1="277.63" y1="140.73" x2="277.63" y2="264.91" xlink:href="#e"/>
    <linearGradient id="br" data-name="Degradado sin nombre 3" x1="277.09" y1="-35.94" x2="277.09" y2="214.65" xlink:href="#e"/>
    <linearGradient id="bs" data-name="Degradado sin nombre 3" x1="277.35" y1="-240.08" x2="277.35" y2="325.14" xlink:href="#e"/>
    <linearGradient id="bt" data-name="Degradado sin nombre 3" x1="176.71" y1="197.92" x2="176.71" y2="772.22" xlink:href="#e"/>
    <linearGradient id="bu" data-name="Degradado sin nombre 3" x1="177.64" y1="-1269.09" x2="177.64" y2="1566.42" xlink:href="#e"/>
  </defs>
  <g id="c" data-name="Layer 1">
    <g>
      <g>
        <g>
          <g>
            <g class="en">
              <line class="cp" x1="68.96" y1="339.98" x2="166.4" y2="333.02"/>
              <line class="cz" x1="128.62" y1="315.12" x2="69.95" y2="389.7"/>
              <line class="cu" x1="80.89" y1="349.92" x2="179.33" y2="403.62"/>
              <line class="db" x1="143.53" y1="348.93" x2="24.21" y2="431.46"/>
              <line class="dc" x1="51.06" y1="369.81" x2="195.23" y2="465.26"/>
              <line class="cs" x1="137.56" y1="359.87" x2="42.11" y2="486.14"/>
              <line class="cr" x1="99.04" y1="510.26" x2="179.57" y2="367.08"/>
              <line class="cx" x1="134.58" y1="496.09" x2="34.16" y2="377.76"/>
              <line class="ct" x1="78.15" y1="491.12" x2="202.44" y2="351.91"/>
              <line class="dd" x1="47.08" y1="424.5" x2="213.13" y2="393.67"/>
              <line class="da" x1="62" y1="501.06" x2="195.23" y2="326.06"/>
              <line class="cy" x1="137.56" y1="504.04" x2="162.42" y2="341.97"/>
              <line class="cv" x1="67.96" y1="394.67" x2="141.54" y2="497.08"/>
              <line class="cw" x1="30.18" y1="454.33" x2="178.33" y2="419.53"/>
              <line class="cn" x1="119.67" y1="337.99" x2="61" y2="499.07"/>
            </g>
            <polygon class="cq" points="49.86 484.25 105.25 313.33 160.64 484.25 49.86 484.25"/>
          </g>
          <path class="ci" d="M163.15,485.64H47.35l57.9-178.66,57.9,178.66Zm-110.78-3.36h105.76l-52.88-163.17-52.88,163.17Z"/>
        </g>
        <g>
          <path class="cl" d="M123.49,315.83l-17.43-12.67-17.43,12.67,6.66-20.5-17.44-12.67h21.55l6.66-20.5,6.66,20.5h21.55l-17.43,12.67,6.66,20.5Zm-34.41-29.81l10.49,7.62-4.01,12.33,10.49-7.62,10.49,7.62-4.01-12.33,10.49-7.62h-12.97l-4.01-12.34-4.01,12.34h-12.97Z"/>
          <g>
            <path class="cj" d="M106.56,264.91c-3.75,0-6.81-3.05-6.81-6.81s3.05-6.81,6.81-6.81,6.81,3.05,6.81,6.81-3.05,6.81-6.81,6.81Zm0-11.19c-2.41,0-4.38,1.96-4.38,4.38s1.96,4.38,4.38,4.38,4.38-1.96,4.38-4.38-1.96-4.38-4.38-4.38Z"/>
            <rect class="ck" x="106" y="1.81" width="2.24" height="250.66"/>
          </g>
        </g>
      </g>
      <g>
        <g>
          <g class="em">
            <line class="co" x1="33.8" y1="157.57" x2="78.66" y2="245.03"/>
            <line class="dq" x1="75.85" y1="158.13" x2="2.41" y2="241.11"/>
            <line class="dr" x1="-.96" y1="202.43" x2="131.92" y2="194.58"/>
            <line class="dn" x1="46.14" y1="237.75" x2="99.4" y2="132.91"/>
            <line class="dj" x1="22.59" y1="175.51" x2="89.87" y2="254.57"/>
            <line class="dk" x1="86.99" y1="217.52" x2="1.44" y2="216.96"/>
            <line class="dh" x1="70.81" y1="178.32" x2="15.86" y2="260.73"/>
            <line class="df" x1="88.19" y1="206.91" x2="85.38" y2="153.09"/>
            <line class="de" x1="105.01" y1="187.29" x2="-4.88" y2="198.5"/>
            <line class="dg" x1="42.21" y1="151.97" x2="96.6" y2="239.99"/>
            <line class="di" x1="53.43" y1="250.08" x2="107.81" y2="178.32"/>
          </g>
          <path class="by" d="M88.87,246.02l-33.94-24.66-33.94,24.66,12.97-39.9L0,181.46H41.96l12.97-39.9,12.97,39.9h41.96l-33.94,24.66,12.97,39.9ZM11.23,184.81l27,19.62-10.31,31.74,27-19.62,27,19.62-10.31-31.74,27-19.62h-33.38l-10.31-31.74-10.31,31.74H11.23Z"/>
        </g>
        <g>
          <path class="bx" d="M55.27,142.5c-3.75,0-6.81-3.05-6.81-6.81s3.05-6.81,6.81-6.81,6.81,3.05,6.81,6.81-3.05,6.81-6.81,6.81Zm0-11.19c-2.41,0-4.38,1.96-4.38,4.38s1.96,4.38,4.38,4.38,4.38-1.96,4.38-4.38-1.96-4.38-4.38-4.38Z"/>
          <polygon class="bv" points="54.56 2.68 54.56 130.01 56.8 130.01 56.8 1.81 54.56 2.68"/>
        </g>
      </g>
      <g>
        <g>
          <g class="eo">
            <line class="dl" x1="216.71" y1="310.85" x2="261.56" y2="398.31"/>
            <line class="dm" x1="258.75" y1="311.41" x2="185.31" y2="394.39"/>
            <line class="do" x1="181.95" y1="355.7" x2="314.82" y2="347.85"/>
            <line class="dp" x1="229.04" y1="391.02" x2="282.3" y2="286.18"/>
            <line class="ds" x1="205.49" y1="328.79" x2="272.77" y2="407.84"/>
            <line class="dt" x1="270.08" y1="370.73" x2="183.97" y2="370.17"/>
            <line class="dx" x1="253.71" y1="331.59" x2="198.77" y2="414.01"/>
            <line class="du" x1="271.09" y1="360.19" x2="268.29" y2="306.36"/>
            <line class="dv" x1="287.91" y1="340.56" x2="178.02" y2="351.78"/>
            <line class="dw" x1="225.12" y1="305.24" x2="279.5" y2="393.26"/>
            <line class="dy" x1="236.33" y1="403.36" x2="290.71" y2="331.59"/>
          </g>
          <path class="bw" d="M271.77,399.23l-33.94-24.66-33.94,24.66,12.97-39.9-33.94-24.66h41.96l12.97-39.9,12.97,39.9h41.96l-33.94,24.66,12.97,39.9Zm-77.63-61.21l27,19.62-10.31,31.74,27-19.62,27,19.62-10.31-31.74,27-19.62h-33.38l-10.31-31.74-10.31,31.74h-33.38Z"/>
        </g>
        <g>
          <path class="cg" d="M238.17,295.78c-3.75,0-6.81-3.05-6.81-6.81s3.05-6.81,6.81-6.81,6.81,3.05,6.81,6.81-3.05,6.81-6.81,6.81Zm0-11.19c-2.41,0-4.38,1.96-4.38,4.38s1.96,4.38,4.38,4.38,4.38-1.96,4.38-4.38-1.96-4.38-4.38-4.38Z"/>
          <rect class="ch" x="237.65" y="237.93" width="2.24" height="45.29"/>
          <rect class="cf" x="237.65" y="1.81" width="2.24" height="178.53"/>
        </g>
      </g>
      <g>
        <g>
          <g class="ep">
            <line class="eh" x1="271.88" y1="150.58" x2="-394.36" y2="81.46"/>
            <line class="eg" x1="215.93" y1="187.07" x2="-395.17" y2="3.61"/>
            <line class="ee" x1="251.61" y1="146.53" x2="260.53" y2="269.79"/>
            <line class="ed" x1="219.98" y1="212.22" x2="-365.98" y2="13.34"/>
            <line class="dz" x1="268.64" y1="148.15" x2="281.62" y2="275.47"/>
            <line class="eb" x1="226.47" y1="226" x2="-366.79" y2="39.29"/>
            <line class="ea" x1="324.6" y1="247.09" x2="219.17" y2="192.75"/>
            <line class="ej" x1="211.06" y1="239.79" x2="322.98" y2="181.4"/>
            <line class="ef" x1="301.08" y1="267.36" x2="307.57" y2="153.01"/>
            <line class="ei" x1="326.22" y1="239.79" x2="218.36" y2="216.27"/>
            <line class="ec" x1="233.77" y1="253.58" x2="-358.68" y2="46.59"/>
          </g>
          <path class="cd" d="M277.76,259.05c-27.5,0-49.88-22.37-49.88-49.88s22.37-49.88,49.88-49.88,49.88,22.37,49.88,49.88-22.37,49.88-49.88,49.88Zm0-96.1c-25.49,0-46.23,20.74-46.23,46.23s20.74,46.23,46.23,46.23,46.23-20.74,46.23-46.23-20.74-46.23-46.23-46.23Z"/>
          <path class="ca" d="M287.41,161.33h-19.57v-16.03c0-3.19,2.59-5.78,5.78-5.78h8.01c3.19,0,5.78,2.59,5.78,5.78v16.03Zm-15.66-3.91h12.3v-12.41c0-1.18-.95-2.13-2.13-2.13h-8.04c-1.18,0-2.13,.95-2.13,2.13v12.41Z"/>
        </g>
        <g>
          <path class="bz" d="M277.09,139.05c-3.75,0-6.81-3.05-6.81-6.81s3.05-6.81,6.81-6.81,6.81,3.05,6.81,6.81-3.05,6.81-6.81,6.81Zm0-11.19c-2.41,0-4.38,1.96-4.38,4.38s1.96,4.38,4.38,4.38,4.38-1.96,4.38-4.38-1.96-4.38-4.38-4.38Z"/>
          <rect class="cb" x="276.23" width="2.24" height="126.66"/>
        </g>
      </g>
    </g>
    <g>
      <path class="cc" d="M176.71,598.97c-8.6,0-15.61-7-15.61-15.61s7-15.61,15.61-15.61,15.61,7,15.61,15.61-7,15.61-15.61,15.61Zm0-25.63c-5.53,0-10.03,4.5-10.03,10.03s4.5,10.03,10.03,10.03,10.03-4.5,10.03-10.03-4.5-10.03-10.03-10.03Z"/>
      <rect class="ce" x="175.08" y="1.81" width="5.13" height="568.87"/>
    </g>
    <g>
      <path class="ek" d="M252.92,662.98l-67.85-67.85c-4.57-4.57-11.98-4.57-16.54,0l-67.85,67.85c-4.57,4.57-4.57,11.98,0,16.54l67.85,67.85c4.57,4.57,11.98,4.57,16.54,0l67.85-67.85c4.57-4.57,4.57-11.98,0-16.54Z"/>
      <path class="el" d="M176.8,601.61c1.4,0,2.72,.54,3.7,1.53l64.4,64.4c.99,.99,1.53,2.31,1.53,3.7s-.54,2.72-1.53,3.7l-64.4,64.4c-.99,.99-2.31,1.53-3.7,1.53s-2.72-.54-3.7-1.53l-64.4-64.4c-2.04-2.04-2.04-5.37,0-7.41l64.4-64.4c.99-.99,2.3-1.53,3.7-1.53m0-3.27c-2.18,0-4.36,.83-6.02,2.49l-64.4,64.4c-3.32,3.32-3.32,8.71,0,12.03l64.4,64.4c1.66,1.66,3.84,2.49,6.02,2.49s4.36-.83,6.02-2.49l64.4-64.4c3.32-3.32,3.32-8.71,0-12.03l-64.4-64.4c-1.66-1.66-3.84-2.49-6.02-2.49h0Z"/>
      <g>
        <g>
          <path class="el" d="M164.4,690.89c0,1.97-.17,3.52-.5,4.66-.33,1.14-.93,2.16-1.78,3.04-1.43,1.49-3.78,2.24-7.04,2.24h-9.8v-33.88h9.8c3.2,0,5.57,.73,7.09,2.19,.82,.79,1.4,1.71,1.74,2.74,.33,1.03,.5,2.47,.5,4.31,0,2.57-.62,4.47-1.86,5.71-.48,.48-1,.86-1.57,1.14,.67,.35,1.19,.75,1.57,1.19,1.24,1.27,1.86,3.49,1.86,6.66Zm-6.76-14.23c0-1.3-.24-2.23-.71-2.78-.48-.55-1.36-.83-2.66-.83h-2.24v7.23h2.24c1.27,0,2.15-.29,2.64-.86,.49-.57,.74-1.49,.74-2.76Zm-.74,17.08c.49-.67,.74-1.79,.74-3.38s-.25-2.71-.76-3.38c-.51-.67-1.41-1-2.71-1h-2.14v8.76h2.14c1.33,0,2.24-.33,2.74-1Z"/>
          <path class="el" d="M186.9,675.06c.3,2.05,.45,4.99,.45,8.83s-.15,6.78-.45,8.83c-.3,2.05-.99,3.74-2.07,5.07-1.84,2.28-4.31,3.43-7.42,3.43s-5.58-1.14-7.42-3.43c-1.08-1.33-1.77-3.02-2.07-5.07-.3-2.05-.45-4.99-.45-8.83s.15-6.78,.45-8.83c.3-2.05,.99-3.74,2.07-5.07,1.84-2.28,4.31-3.43,7.42-3.43s5.58,1.14,7.42,3.43c1.08,1.33,1.77,3.02,2.07,5.07Zm-6.31,8.83c0-5.43-.3-8.72-.9-9.9-.44-.89-1.21-1.33-2.28-1.33s-1.84,.44-2.28,1.33c-.6,1.17-.9,4.47-.9,9.9s.3,8.72,.9,9.9c.44,.89,1.21,1.33,2.28,1.33s1.84-.44,2.28-1.33c.6-1.17,.9-4.47,.9-9.9Z"/>
          <path class="el" d="M210.62,700.73h-7.42l-3.38-10.8-3.38,10.8h-7.42l6.95-17.51-6.42-16.37h7.42l2.86,10.14,2.85-10.14h7.42l-6.62,16.37,7.14,17.51Z"/>
        </g>
        <g>
          <path class="el" d="M154.68,657.54c0,2.24-.45,3.81-1.34,4.7-.77,.77-1.9,1.16-3.39,1.16s-2.65-.39-3.42-1.16c-.49-.51-.82-1.08-1.01-1.71-.18-.63-.27-1.55-.27-2.75h1.8c0,1.61,.28,2.7,.85,3.27,.49,.49,1.17,.73,2.05,.73,.94,0,1.63-.24,2.08-.73,.57-.61,.86-1.76,.86-3.45,0-1.38-.15-2.38-.46-2.99s-.92-1.1-1.83-1.47l-2.32-.95c-1.12-.45-1.88-1.05-2.27-1.82-.4-.76-.6-1.97-.6-3.62,0-1.93,.5-3.37,1.5-4.3,.81-.77,1.87-1.16,3.18-1.16,1.38,0,2.47,.4,3.27,1.19,.51,.51,.86,1.08,1.04,1.72,.18,.64,.27,1.47,.27,2.49h-1.8c0-1.36-.27-2.36-.82-2.99-.47-.53-1.13-.79-1.98-.79-.79,0-1.42,.23-1.89,.7-.63,.63-.95,1.67-.95,3.11,0,1.26,.15,2.15,.44,2.67,.29,.52,.93,.98,1.91,1.39l2.32,.95c1.12,.45,1.87,1.1,2.24,1.97,.38,.87,.56,2.14,.56,3.83Z"/>
          <path class="el" d="M167.81,663.22h-1.92l-1.19-5.95h-5.07l-1.16,5.95h-1.95l4.85-21.74h1.68l4.76,21.74Zm-3.45-7.57l-2.2-10.93-2.17,10.93h4.37Z"/>
          <path class="el" d="M177.74,643.1h-5.77v8.43h4.98v1.62h-4.98v10.08h-1.8v-21.74h7.57v1.62Z"/>
          <path class="el" d="M187.47,663.22h-7.57v-21.74h7.57v1.62h-5.77v8.43h4.98v1.62h-4.98v8.46h5.77v1.62Z"/>
          <path class="el" d="M198.64,643.1h-3.63v20.12h-1.8v-20.12h-3.63v-1.62h9.07v1.62Z"/>
          <path class="el" d="M210.11,641.48l-3.82,12.64v9.1h-1.8v-9.1l-3.82-12.64h1.99l2.72,9.95,2.75-9.95h1.98Z"/>
        </g>
      </g>
    </g>
  </g>
</svg>