<?xml version="1.0" encoding="UTF-8"?>
<svg id="Layer_2" data-name="Layer 2" xmlns="http://www.w3.org/2000/svg" xmlns:xlink="http://www.w3.org/1999/xlink" viewBox="0 0 410.94 962.85">
  <defs>
    <style>
      .cls-1 {
        fill: #fff;
      }

      .cls-2 {
        fill: url(#Degradado_sin_nombre_3-3);
      }

      .cls-3 {
        fill: url(#Degradado_sin_nombre_3-2);
      }

      .cls-4 {
        filter: url(#drop-shadow-1);
      }

      .cls-5 {
        fill: url(#Degradado_sin_nombre_3);
      }
    </style>
    <filter id="drop-shadow-1" filterUnits="userSpaceOnUse">
      <feOffset dx="13.05" dy="15.23"/>
      <feGaussianBlur result="blur" stdDeviation="8.7"/>
      <feFlood flood-color="#000" flood-opacity=".5"/>
      <feComposite in2="blur" operator="in"/>
      <feComposite in="SourceGraphic"/>
    </filter>
    <linearGradient id="Degradado_sin_nombre_3" data-name="Degradado sin nombre 3" x1="204.8" y1="186.77" x2="204.8" y2="708.98" gradientUnits="userSpaceOnUse">
      <stop offset=".02" stop-color="#daa762"/>
      <stop offset=".06" stop-color="#deb070"/>
      <stop offset=".13" stop-color="#ebc998"/>
      <stop offset=".23" stop-color="#ffefd4"/>
      <stop offset=".28" stop-color="#fdeccf"/>
      <stop offset=".33" stop-color="#f9e4c3"/>
      <stop offset=".38" stop-color="#f2d7ae"/>
      <stop offset=".43" stop-color="#e9c591"/>
      <stop offset=".48" stop-color="#ddad6c"/>
      <stop offset=".5" stop-color="#daa762"/>
      <stop offset=".8" stop-color="#ffe5b9"/>
      <stop offset="1" stop-color="#8b5300"/>
    </linearGradient>
    <linearGradient id="Degradado_sin_nombre_3-2" data-name="Degradado sin nombre 3" x1="205.8" y1="26.15" x2="205.8" y2="795.79" xlink:href="#Degradado_sin_nombre_3"/>
    <linearGradient id="Degradado_sin_nombre_3-3" data-name="Degradado sin nombre 3" x1="0" y1="757.38" x2="410.94" y2="757.38" xlink:href="#Degradado_sin_nombre_3"/>
  </defs>
  <g id="_Слой_9" data-name="Слой 9">
    <g class="cls-4">
      <g>
        <path class="cls-5" d="M204.8,551.44c-6.71,0-12.18-6.37-12.18-14.19s5.46-14.19,12.18-14.19,12.18,6.37,12.18,14.19-5.46,14.19-12.18,14.19Zm0-23.31c-4.32,0-7.83,4.09-7.83,9.12s3.51,9.12,7.83,9.12,7.83-4.09,7.83-9.12-3.51-9.12-7.83-9.12Z"/>
        <rect class="cls-3" x="203.8" width="4" height="525.52"/>
      </g>
    </g>
    <g>
      <path class="cls-2" d="M402.09,736.01l-175.25-175.25c-11.8-11.8-30.93-11.8-42.73,0L8.85,736.01c-11.8,11.8-11.8,30.93,0,42.73l175.25,175.25c11.8,11.8,30.93,11.8,42.73,0l175.25-175.25c11.8-11.8,11.8-30.93,0-42.73Z"/>
      <path class="cls-1" d="M205.47,949.28c-4.45,0-8.63-1.73-11.77-4.87L18.45,769.15c-3.14-3.14-4.88-7.32-4.88-11.77s1.73-8.63,4.88-11.77l175.25-175.25c3.14-3.14,7.32-4.88,11.77-4.88s8.63,1.73,11.77,4.88l175.25,175.25c6.49,6.49,6.49,17.05,0,23.54l-175.25,175.25c-3.14,3.14-7.32,4.87-11.77,4.87Z"/>
    </g>
  </g>
</svg>