<?xml version="1.0" encoding="UTF-8"?>
<svg id="Layer_2" data-name="Layer 2" xmlns="http://www.w3.org/2000/svg" xmlns:xlink="http://www.w3.org/1999/xlink" viewBox="0 0 385.98 729.24">
  <defs>
    <style>
      .cls-1 {
        fill: #ffb346;
      }

      .cls-2 {
        fill: #231300;
      }

      .cls-3 {
        fill: url(#Degradado_sin_nombre_3-2);
      }

      .cls-4 {
        filter: url(#drop-shadow-2);
      }

      .cls-5 {
        filter: url(#drop-shadow-1);
      }

      .cls-6 {
        fill: url(#Degradado_sin_nombre_3);
      }
    </style>
    <filter id="drop-shadow-1" filterUnits="userSpaceOnUse">
      <feOffset dx="24.44" dy="28.52"/>
      <feGaussianBlur result="blur" stdDeviation="16.3"/>
      <feFlood flood-color="#000" flood-opacity=".5"/>
      <feComposite in2="blur" operator="in"/>
      <feComposite in="SourceGraphic"/>
    </filter>
    <linearGradient id="Degradado_sin_nombre_3" data-name="Degradado sin nombre 3" x1="192.32" y1="-245.12" x2="192.32" y2="594.16" gradientUnits="userSpaceOnUse">
      <stop offset=".02" stop-color="#daa762"/>
      <stop offset=".06" stop-color="#deb070"/>
      <stop offset=".13" stop-color="#ebc998"/>
      <stop offset=".23" stop-color="#ffefd4"/>
      <stop offset=".28" stop-color="#fdeccf"/>
      <stop offset=".33" stop-color="#f9e4c3"/>
      <stop offset=".38" stop-color="#f2d7ae"/>
      <stop offset=".43" stop-color="#e9c591"/>
      <stop offset=".48" stop-color="#ddad6c"/>
      <stop offset=".5" stop-color="#daa762"/>
      <stop offset=".8" stop-color="#ffe5b9"/>
      <stop offset="1" stop-color="#8b5300"/>
    </linearGradient>
    <linearGradient id="Degradado_sin_nombre_3-2" data-name="Degradado sin nombre 3" x1="193.68" y1="-669.41" x2="193.68" y2="824.11" xlink:href="#Degradado_sin_nombre_3"/>
    <filter id="drop-shadow-2" filterUnits="userSpaceOnUse">
      <feOffset dx="17" dy="15"/>
      <feGaussianBlur result="blur-2" stdDeviation="15"/>
      <feFlood flood-color="#000" flood-opacity=".38"/>
      <feComposite in2="blur-2" operator="in"/>
      <feComposite in="SourceGraphic"/>
    </filter>
  </defs>
  <g id="_Слой_11" data-name="Слой 11">
    <g class="cls-5">
      <g>
        <path class="cls-6" d="M192.32,340.97c-12.57,0-22.81-10.23-22.81-22.81s10.23-22.81,22.81-22.81,22.81,10.23,22.81,22.81-10.23,22.81-22.81,22.81Zm0-37.46c-8.08,0-14.66,6.57-14.66,14.66s6.57,14.66,14.66,14.66,14.66-6.57,14.66-14.66-6.57-14.66-14.66-14.66Z"/>
        <rect class="cls-3" x="189.94" width="7.49" height="299.64"/>
      </g>
    </g>
  </g>
  <g id="_Слой_9" data-name="Слой 9">
    <g class="cls-4">
      <path class="cls-1" d="M377.67,516.18l-164.61-164.61c-11.08-11.08-29.05-11.08-40.14,0L8.31,516.18c-11.08,11.08-11.08,29.05,0,40.14l164.61,164.61c11.08,11.08,29.05,11.08,40.14,0l164.61-164.61c11.08-11.08,11.08-29.05,0-40.14Z"/>
      <path class="cls-2" d="M192.99,367.3c3.4,0,6.59,1.32,8.99,3.72l156.24,156.24c2.4,2.4,3.72,5.59,3.72,8.99s-1.32,6.59-3.72,8.99l-156.24,156.24c-2.4,2.4-5.59,3.72-8.99,3.72s-6.59-1.32-8.99-3.72L27.76,545.24c-4.96-4.96-4.96-13.02,0-17.98l156.24-156.24c2.4-2.4,5.59-3.72,8.99-3.72m0-7.93c-5.28,0-10.57,2.02-14.6,6.05L22.15,521.65c-8.06,8.06-8.06,21.13,0,29.19l156.24,156.24c4.03,4.03,9.31,6.05,14.6,6.05s10.57-2.02,14.6-6.05l156.24-156.24c8.06-8.06,8.06-21.13,0-29.19l-156.24-156.24c-4.03-4.03-9.31-6.05-14.6-6.05h0Z"/>
      <g>
        <g>
          <path class="cls-2" d="M162.92,583.87c0,4.77-.4,8.54-1.21,11.31-.81,2.77-2.25,5.23-4.33,7.39-3.46,3.62-9.16,5.43-17.09,5.43h-23.78v-82.2h23.78c7.77,0,13.51,1.77,17.2,5.31,2,1.93,3.41,4.14,4.21,6.64,.81,2.5,1.21,5.98,1.21,10.45,0,6.23-1.5,10.85-4.5,13.85-1.15,1.15-2.42,2.08-3.81,2.77,1.62,.85,2.89,1.81,3.81,2.89,3,3.08,4.5,8.47,4.5,16.16Zm-16.39-34.52c0-3.16-.58-5.41-1.73-6.75-1.15-1.35-3.31-2.02-6.46-2.02h-5.42v17.55h5.42c3.08,0,5.21-.69,6.41-2.08,1.19-1.39,1.79-3.62,1.79-6.7Zm-1.79,41.45c1.19-1.62,1.79-4.35,1.79-8.2s-.62-6.58-1.85-8.2c-1.23-1.62-3.43-2.42-6.58-2.42h-5.19v21.24h5.19c3.23,0,5.44-.81,6.64-2.42Z"/>
          <path class="cls-2" d="M217.49,545.48c.73,4.97,1.1,12.1,1.1,21.42s-.37,16.45-1.1,21.41c-.73,4.96-2.41,9.06-5.02,12.29-4.46,5.54-10.47,8.31-18.01,8.31s-13.55-2.77-18.01-8.31c-2.62-3.23-4.29-7.33-5.02-12.29-.73-4.96-1.1-12.1-1.1-21.41s.36-16.45,1.1-21.42c.73-4.96,2.4-9.06,5.02-12.29,4.46-5.54,10.47-8.31,18.01-8.31s13.54,2.77,18.01,8.31c2.62,3.23,4.29,7.33,5.02,12.29Zm-15.3,21.42c0-13.16-.73-21.17-2.19-24.01-1.08-2.15-2.93-3.23-5.54-3.23s-4.46,1.08-5.54,3.23c-1.46,2.85-2.19,10.85-2.19,24.01s.73,21.17,2.19,24.01c1.08,2.16,2.92,3.23,5.54,3.23s4.46-1.08,5.54-3.23c1.46-2.85,2.19-10.85,2.19-24.01Z"/>
          <path class="cls-2" d="M275.05,607.75h-18.01l-8.2-26.21-8.2,26.21h-18.01l16.85-42.49-15.59-39.71h18.01l6.93,24.59,6.93-24.59h18.01l-16.05,39.71,17.32,42.49Z"/>
        </g>
        <g>
          <path class="cls-2" d="M139.32,502.98c0,5.43-1.09,9.23-3.26,11.41-1.88,1.88-4.62,2.82-8.22,2.82s-6.42-.94-8.3-2.82c-1.19-1.23-2-2.62-2.44-4.15-.45-1.53-.67-3.75-.67-6.67h4.37c0,3.9,.69,6.54,2.07,7.92,1.19,1.19,2.84,1.78,4.96,1.78,2.27,0,3.95-.59,5.04-1.78,1.38-1.48,2.07-4.27,2.07-8.37,0-3.36-.37-5.78-1.11-7.26-.74-1.48-2.22-2.67-4.44-3.56l-5.63-2.3c-2.72-1.08-4.55-2.55-5.52-4.41-.96-1.85-1.44-4.78-1.44-8.78,0-4.69,1.21-8.17,3.63-10.44,1.98-1.88,4.54-2.82,7.7-2.82,3.36,0,6,.96,7.92,2.89,1.23,1.23,2.07,2.63,2.52,4.18,.44,1.56,.67,3.57,.67,6.04h-4.37c0-3.31-.67-5.73-2-7.26-1.14-1.28-2.74-1.93-4.81-1.93-1.92,0-3.46,.57-4.59,1.7-1.53,1.53-2.3,4.05-2.3,7.55,0,3.06,.36,5.22,1.08,6.48,.71,1.26,2.26,2.38,4.63,3.37l5.63,2.3c2.71,1.09,4.53,2.68,5.44,4.78,.91,2.1,1.37,5.2,1.37,9.3Z"/>
          <path class="cls-2" d="M171.18,516.75h-4.67l-2.89-14.44h-12.29l-2.81,14.44h-4.74l11.78-52.74h4.07l11.55,52.74Zm-8.37-18.37l-5.33-26.52-5.26,26.52h10.59Z"/>
          <path class="cls-2" d="M195.27,467.94h-14v20.44h12.07v3.93h-12.07v24.44h-4.37v-52.74h18.37v3.93Z"/>
          <path class="cls-2" d="M218.88,516.75h-18.37v-52.74h18.37v3.93h-14v20.44h12.07v3.93h-12.07v20.52h14v3.93Z"/>
          <path class="cls-2" d="M245.99,467.94h-8.81v48.81h-4.37v-48.81h-8.81v-3.93h22v3.93Z"/>
          <path class="cls-2" d="M273.81,464.02l-9.26,30.66v22.07h-4.37v-22.07l-9.26-30.66h4.82l6.59,24.15,6.67-24.15h4.81Z"/>
        </g>
      </g>
    </g>
  </g>
</svg>